<svg width="18" height="18" viewBox="0 0 18 18" fill="none" xmlns="http://www.w3.org/2000/svg">
<path d="M17.7707 7.17985C17.6248 7.03903 17.4269 6.95992 17.2206 6.95992C17.0143 6.95992 16.8165 7.03903 16.6706 7.17985L8.19697 15.3969C7.83576 15.7457 7.40694 16.0224 6.93499 16.2112C6.46304 16.4 5.95719 16.4972 5.44634 16.4972C4.41463 16.4973 3.42514 16.1017 2.69555 15.3973C1.96597 14.6929 1.55605 13.7376 1.55598 12.7414C1.55591 11.7452 1.96568 10.7898 2.69516 10.0854L10.902 2.12897C11.3408 1.71199 11.9325 1.47933 12.5482 1.48168C13.1639 1.48403 13.7537 1.7212 14.1891 2.14152C14.6245 2.56183 14.8703 3.13125 14.8729 3.72574C14.8755 4.32023 14.6346 4.89161 14.2029 5.31544L5.99609 13.2719C5.84808 13.4088 5.65103 13.4852 5.44607 13.4852C5.2411 13.4852 5.04405 13.4088 4.89604 13.2719C4.75019 13.131 4.66826 12.94 4.66826 12.7408C4.66826 12.5416 4.75019 12.3506 4.89604 12.2097L12.2027 5.12239C12.3444 4.98072 12.4229 4.79097 12.4211 4.59401C12.4193 4.39706 12.3375 4.20865 12.1933 4.06938C12.049 3.93011 11.8539 3.85111 11.6499 3.8494C11.4459 3.84769 11.2494 3.9234 11.1027 4.06023L3.79599 11.1475C3.57923 11.3568 3.40728 11.6052 3.28996 11.8787C3.17265 12.1521 3.11227 12.4452 3.11227 12.7412C3.11227 13.0371 3.17265 13.3302 3.28996 13.6036C3.40728 13.8771 3.57923 14.1255 3.79599 14.3348C4.24069 14.7445 4.83177 14.9731 5.44645 14.9731C6.06114 14.9731 6.65221 14.7445 7.09692 14.3348L15.3029 6.3776C16.0171 5.67022 16.4139 4.71965 16.4073 3.7318C16.4008 2.74395 15.9914 1.79836 15.2679 1.09988C14.5444 0.401397 13.565 0.00626345 12.5419 7.38232e-05C11.5189 -0.00611581 10.5344 0.377137 9.80192 1.06681L1.59512 9.02322C0.57378 10.0094 -1.52191e-08 11.3469 0 12.7415C1.52191e-08 14.1362 0.57378 15.4737 1.59512 16.4598C2.61645 17.446 4.00168 18 5.44607 18C6.89045 18 8.27568 17.446 9.29701 16.4598L17.7707 8.24501C17.8433 8.17521 17.901 8.09222 17.9404 8.00082C17.9797 7.90942 18 7.81141 18 7.71243C18 7.61345 17.9797 7.51544 17.9404 7.42404C17.901 7.33264 17.8433 7.24965 17.7707 7.17985Z" fill="url(#paint0_linear_1_4158)"/>
<defs>
<linearGradient id="paint0_linear_1_4158" x1="8.4" y1="18" x2="8.4" y2="0.9" gradientUnits="userSpaceOnUse">
<stop stop-color="#F33F41"/>
<stop offset="1" stop-color="#FB6D72"/>
</linearGradient>
</defs>
</svg>
