<svg width="22" height="18" viewBox="0 0 22 18" fill="none" xmlns="http://www.w3.org/2000/svg">
<path d="M20.9999 10.1427V13.5713C20.9999 15.057 17.3128 16.9999 12.7646 16.9999C8.21636 16.9999 4.5293 15.057 4.5293 13.5713V10.7142" stroke="#333333" stroke-linecap="round" stroke-linejoin="round"/>
<path d="M4.87524 11.01C5.89289 12.322 9.03995 13.5529 12.7647 13.5529C17.3129 13.5529 20.9999 11.7174 20.9999 10.1403C20.9999 9.25458 19.8388 8.28429 18.0164 7.60315" stroke="#333333" stroke-linecap="round" stroke-linejoin="round"/>
<path d="M17.4706 4.42847V7.85704C17.4706 9.34275 13.7835 11.2856 9.23529 11.2856C4.68706 11.2856 1 9.34275 1 7.85704V4.42847" stroke="#333333" stroke-linecap="round" stroke-linejoin="round"/>
<path fill-rule="evenodd" clip-rule="evenodd" d="M9.23529 7.83886C13.7835 7.83886 17.4706 6.00343 17.4706 4.42629C17.4706 2.848 13.7835 1 9.23529 1C4.68706 1 1 2.848 1 4.42629C1 6.00343 4.68706 7.83886 9.23529 7.83886Z" stroke="#333333" stroke-linecap="round" stroke-linejoin="round"/>
</svg>
