<svg width="26" height="27" viewBox="0 0 26 27" fill="none" xmlns="http://www.w3.org/2000/svg">
<path d="M8.66677 12.1573C8.4525 12.1573 8.24305 12.2209 8.0649 12.3399C7.88674 12.459 7.74789 12.6282 7.6659 12.8261C7.5839 13.0241 7.56245 13.2419 7.60425 13.452C7.64605 13.6622 7.74923 13.8552 7.90073 14.0067C8.05224 14.1582 8.24527 14.2614 8.45542 14.3032C8.66556 14.345 8.88339 14.3235 9.08134 14.2416C9.27929 14.1596 9.44849 14.0207 9.56752 13.8426C9.68656 13.6644 9.7501 13.4549 9.7501 13.2407C9.7501 12.9534 9.63596 12.6778 9.4328 12.4747C9.22963 12.2715 8.95408 12.1573 8.66677 12.1573ZM13.0001 12.1573C12.7858 12.1573 12.5764 12.2209 12.3982 12.3399C12.2201 12.459 12.0812 12.6282 11.9992 12.8261C11.9172 13.0241 11.8958 13.2419 11.9376 13.452C11.9794 13.6622 12.0826 13.8552 12.2341 14.0067C12.3856 14.1582 12.5786 14.2614 12.7888 14.3032C12.9989 14.345 13.2167 14.3235 13.4147 14.2416C13.6126 14.1596 13.7818 14.0207 13.9009 13.8426C14.0199 13.6644 14.0834 13.4549 14.0834 13.2407C14.0834 12.9534 13.9693 12.6778 13.7661 12.4747C13.563 12.2715 13.2874 12.1573 13.0001 12.1573ZM17.3334 12.1573C17.1192 12.1573 16.9097 12.2209 16.7316 12.3399C16.5534 12.459 16.4146 12.6282 16.3326 12.8261C16.2506 13.0241 16.2291 13.2419 16.2709 13.452C16.3127 13.6622 16.4159 13.8552 16.5674 14.0067C16.7189 14.1582 16.9119 14.2614 17.1221 14.3032C17.3322 14.345 17.5501 14.3235 17.748 14.2416C17.946 14.1596 18.1152 14.0207 18.2342 13.8426C18.3532 13.6644 18.4168 13.4549 18.4168 13.2407C18.4168 12.9534 18.3026 12.6778 18.0995 12.4747C17.8963 12.2715 17.6208 12.1573 17.3334 12.1573ZM13.0001 2.40735C11.5774 2.40735 10.1687 2.68756 8.85436 3.23199C7.54 3.77641 6.34574 4.57439 5.33978 5.58036C3.30813 7.612 2.16677 10.3675 2.16677 13.2407C2.1573 15.7422 3.02346 18.1683 4.6151 20.0982L2.44843 22.2648C2.29811 22.4172 2.19628 22.6106 2.15579 22.8208C2.11531 23.031 2.13797 23.2484 2.22093 23.4457C2.31091 23.6406 2.45678 23.8044 2.64002 23.9163C2.82325 24.0281 3.0356 24.083 3.2501 24.074H13.0001C15.8733 24.074 18.6288 22.9326 20.6604 20.901C22.6921 18.8694 23.8334 16.1139 23.8334 13.2407C23.8334 10.3675 22.6921 7.612 20.6604 5.58036C18.6288 3.54871 15.8733 2.40735 13.0001 2.40735ZM13.0001 21.9073H5.86093L6.86843 20.8998C6.97079 20.7995 7.05223 20.6799 7.10802 20.5478C7.16381 20.4158 7.19284 20.274 7.19343 20.1307C7.18936 19.8449 7.07255 19.5724 6.86843 19.3723C5.4499 17.9554 4.56654 16.0904 4.36885 14.0952C4.17116 12.1 4.67137 10.0979 5.78426 8.43016C6.89715 6.76239 8.55387 5.53207 10.4722 4.94882C12.3904 4.36557 14.4516 4.46547 16.3045 5.23151C18.1574 5.99754 19.6874 7.38231 20.6337 9.1499C21.5801 10.9175 21.8844 12.9585 21.4947 14.9253C21.1049 16.892 20.0453 18.6628 18.4964 19.9359C16.9475 21.2091 15.0051 21.9058 13.0001 21.9073Z" fill="white"/>
</svg>
