<svg width="20" height="22" viewBox="0 0 20 22" fill="none" xmlns="http://www.w3.org/2000/svg">
<path fill-rule="evenodd" clip-rule="evenodd" d="M9.63725 0.53622C9.21179 0.620305 8.99484 0.772257 8.17161 1.56281C7.65262 2.06112 7.33153 2.33871 7.22952 2.37714C7.08897 2.4301 6.98899 2.42345 6.14105 2.30455C5.62748 2.23254 5.08573 2.17198 4.93714 2.16996C4.32785 2.16175 3.76966 2.45757 3.43083 2.96828C3.22444 3.27941 3.18202 3.4312 2.98469 4.56458C2.89459 5.08211 2.79291 5.55997 2.75868 5.62652C2.68331 5.77326 2.57656 5.84187 1.74032 6.28081C0.601843 6.87836 0.404876 7.0356 0.171486 7.53309C0.0405965 7.81212 0.00107274 8.00763 1.2242e-05 8.38174C-0.00100746 8.72966 0.0606644 8.90001 0.565582 9.94389C0.897353 10.6299 0.996877 10.8741 0.996877 11.0024C0.996877 11.1308 0.897353 11.375 0.565582 12.061C0.0606644 13.1048 -0.00100746 13.2752 1.2242e-05 13.6231C0.00107274 13.9972 0.0405965 14.1927 0.171486 14.4717C0.404876 14.9692 0.601843 15.1265 1.74032 15.724C2.57656 16.163 2.68331 16.2316 2.75868 16.3783C2.79291 16.4449 2.89475 16.9237 2.98506 17.4424C3.07536 17.9611 3.17456 18.4701 3.20544 18.5734C3.42639 19.3124 4.1102 19.8276 4.88102 19.8358C5.03805 19.8375 5.59587 19.7782 6.12065 19.7041C6.98826 19.5816 7.08876 19.5747 7.22952 19.6277C7.33153 19.6661 7.65262 19.9437 8.17161 20.442C8.79795 21.0435 9.01046 21.2224 9.21114 21.3169C9.72943 21.561 10.2704 21.561 10.7887 21.3169C10.9894 21.2224 11.2019 21.0435 11.8283 20.442C12.3473 19.9437 12.6683 19.6661 12.7704 19.6277C12.9109 19.5747 13.0109 19.5814 13.8588 19.7003C14.3724 19.7723 14.9141 19.8329 15.0627 19.8349C15.672 19.8431 16.2302 19.5473 16.569 19.0366C16.7754 18.7254 16.8179 18.5736 17.0152 17.4403C17.1053 16.9227 17.207 16.4449 17.2412 16.3783C17.3173 16.2301 17.4088 16.1721 18.367 15.6651C19.27 15.1873 19.4702 15.0436 19.689 14.716C19.9049 14.3928 19.9965 14.0893 19.9998 13.6869C20.0032 13.2707 19.9617 13.1512 19.4343 12.061C19.1025 11.375 19.003 11.1308 19.003 11.0024C19.003 10.8741 19.1025 10.6299 19.4343 9.94389C19.9617 8.85361 20.0032 8.73418 19.9998 8.3179C19.9965 7.9155 19.9049 7.61205 19.689 7.2888C19.4702 6.96121 19.27 6.81755 18.367 6.33973C17.4088 5.83271 17.3173 5.77474 17.2412 5.62652C17.207 5.55997 17.1053 5.08211 17.0152 4.56458C16.8179 3.4312 16.7754 3.27941 16.569 2.96828C16.2302 2.45757 15.672 2.16175 15.0627 2.16996C14.9141 2.17198 14.3724 2.23254 13.8588 2.30455C13.0109 2.42345 12.9109 2.4301 12.7704 2.37714C12.6683 2.33871 12.3473 2.06112 11.8283 1.56281C11.2114 0.970481 10.9878 0.781741 10.7956 0.691169C10.4035 0.506535 10.0361 0.457349 9.63725 0.53622ZM8.05259 5.60205C8.99463 5.80299 9.7112 6.63891 9.78523 7.62334C9.86322 8.66048 9.15216 9.6484 8.1358 9.91486C7.39133 10.11 6.60457 9.88669 6.0421 9.32047C5.37341 8.64742 5.20137 7.67876 5.59946 6.82851C6.03626 5.89557 7.05079 5.38835 8.05259 5.60205ZM14.2729 6.48593C14.5368 6.64786 14.6452 7.00144 14.5097 7.25801C14.4388 7.39223 6.3868 15.4912 6.26031 15.5555C6.12196 15.6259 5.87348 15.6088 5.72701 15.5189C5.46311 15.357 5.35469 15.0034 5.49023 14.7468C5.55619 14.6219 13.6051 6.52038 13.7321 6.45107C13.8628 6.37972 14.1276 6.3968 14.2729 6.48593ZM7.16349 6.8685C6.80639 7.03975 6.60742 7.35585 6.60371 7.75784C6.59845 8.32841 7.02566 8.76177 7.59344 8.76177C8.59422 8.76177 8.95972 7.44995 8.1068 6.91921C7.83066 6.74734 7.45794 6.72731 7.16349 6.8685ZM12.9803 12.095C13.5557 12.267 14.1132 12.7189 14.362 13.215C14.7837 14.0559 14.6476 15.075 14.0261 15.7294C13.317 16.4761 12.3405 16.6618 11.4479 16.2196C10.732 15.8649 10.275 15.1837 10.2147 14.3815C10.1375 13.3554 10.8444 12.3638 11.8466 12.092C12.1412 12.0122 12.708 12.0137 12.9803 12.095ZM12.1821 13.256C11.3189 13.4812 11.1389 14.6163 11.8921 15.085C12.1629 15.2536 12.509 15.2775 12.8073 15.1483C13.5744 14.8161 13.601 13.7257 12.8514 13.3407C12.6779 13.2517 12.3553 13.2108 12.1821 13.256Z" fill="url(#paint0_linear_1_1092)"/>
<defs>
<linearGradient id="paint0_linear_1_1092" x1="9.33333" y1="21.5" x2="9.33333" y2="1.55" gradientUnits="userSpaceOnUse">
<stop stop-color="#F33F41"/>
<stop offset="1" stop-color="#FB6D72"/>
</linearGradient>
</defs>
</svg>
