<svg width="24" height="24" viewBox="0 0 24 24" fill="none" xmlns="http://www.w3.org/2000/svg">
<path d="M10.1549 14.773L10.1459 14.752C10.0107 14.7151 9.87664 14.6741 9.74391 14.629L9.73391 14.625C8.35214 14.1529 7.15273 13.2603 6.30378 12.0722C5.45483 10.8842 4.99891 9.46024 4.99991 8.00004C4.99946 6.20815 5.68621 4.48431 6.9187 3.1836C8.15118 1.88289 9.83555 1.10436 11.6249 1.00835C13.4142 0.91235 15.1722 1.50619 16.5368 2.66756C17.9014 3.82893 18.7686 5.46939 18.9599 7.25104C19.0039 7.66304 18.6639 8.00004 18.2499 8.00004C17.8359 8.00004 17.5049 7.66204 17.4499 7.25204C17.3169 6.28431 16.9286 5.36945 16.3249 4.60149C15.7212 3.83352 14.924 3.24015 14.015 2.88237C13.1061 2.52458 12.1183 2.41528 11.1531 2.56569C10.1879 2.71611 9.28018 3.12082 8.52321 3.73823C7.76624 4.35563 7.18733 5.16347 6.84597 6.07871C6.50461 6.99395 6.41311 7.98359 6.58089 8.9459C6.74866 9.90821 7.16965 10.8085 7.80059 11.5542C8.43153 12.2999 9.24967 12.8642 10.1709 13.189C10.3565 12.7696 10.6806 12.4266 11.089 12.2177C11.4973 12.0088 11.9651 11.9466 12.4138 12.0415C12.8626 12.1364 13.2651 12.3827 13.5538 12.7391C13.8426 13.0955 14.0001 13.5403 13.9999 13.999C13.9999 14.597 13.7379 15.133 13.3229 15.499C12.9582 15.8224 12.4874 16.0007 11.9999 16C11.6055 16.001 11.2196 15.885 10.8912 15.6666C10.5627 15.4481 10.3065 15.1372 10.1549 14.773ZM7.99691 15.5C7.26009 15.1058 6.58521 14.6055 5.99391 14.015C5.44605 14.0788 4.94068 14.3415 4.57381 14.7534C4.20694 15.1652 4.00413 15.6975 4.00391 16.249V16.827C4.00391 17.719 4.32191 18.583 4.90191 19.262C6.46791 21.096 8.85391 22.002 11.9999 22.002C15.1459 22.002 17.5329 21.096 19.1019 19.262C19.6833 18.5828 20.0028 17.7181 20.0029 16.824V16.249C20.003 15.9537 19.945 15.6612 19.8321 15.3883C19.7192 15.1154 19.5536 14.8674 19.3449 14.6585C19.1362 14.4495 18.8883 14.2838 18.6155 14.1706C18.3427 14.0575 18.0502 13.9992 17.7549 13.999H15.4999C15.4999 14.537 15.3799 15.045 15.1629 15.499H17.7539C17.9528 15.499 18.1436 15.5781 18.2842 15.7187C18.4249 15.8594 18.5039 16.0501 18.5039 16.249V16.824C18.5038 17.3606 18.3119 17.8795 17.9629 18.287C16.7059 19.755 14.7389 20.501 11.9999 20.501C9.26191 20.501 7.29591 19.755 6.04291 18.288C5.69448 17.8806 5.50298 17.3621 5.50291 16.826V16.249C5.50291 16.0501 5.58192 15.8594 5.72258 15.7187C5.86323 15.5781 6.05399 15.499 6.25291 15.499H7.99691V15.5ZM7.99991 8.00004C8.00009 7.31009 8.17873 6.63192 8.51848 6.03142C8.85822 5.43091 9.34752 4.9285 9.93882 4.57299C10.5301 4.21748 11.2033 4.02096 11.893 4.00253C12.5827 3.98409 13.2655 4.14437 13.8749 4.46779C14.4844 4.79121 14.9998 5.26678 15.3712 5.84827C15.7425 6.42977 15.9571 7.09743 15.9941 7.78639C16.0312 8.47534 15.8894 9.16216 15.5825 9.78012C15.2757 10.3981 14.8142 10.9261 14.2429 11.313C13.6141 10.7867 12.8199 10.4988 11.9999 10.5C12.6629 10.5 13.2988 10.2366 13.7677 9.76781C14.2365 9.29897 14.4999 8.66308 14.4999 8.00004C14.4999 7.337 14.2365 6.70111 13.7677 6.23227C13.2988 5.76343 12.6629 5.50004 11.9999 5.50004C11.3369 5.50004 10.701 5.76343 10.2321 6.23227C9.7633 6.70111 9.49991 7.337 9.49991 8.00004C9.49991 8.66308 9.7633 9.29897 10.2321 9.76781C10.701 10.2366 11.3369 10.5 11.9999 10.5C11.1459 10.5 10.3639 10.806 9.75791 11.313C9.21555 10.9474 8.77149 10.454 8.46491 9.87622C8.15832 9.29845 7.99862 8.65411 7.99991 8.00004Z" fill="#3B3B3B"/>
</svg>
