<svg width="74" height="24" viewBox="0 0 74 24" fill="none" xmlns="http://www.w3.org/2000/svg">
<path d="M70.886 14.6568L72.9187 16.0119C72.2589 16.9837 70.6809 18.6508 67.9528 18.6508C64.565 18.6508 62.042 16.0297 62.042 12.6954C62.042 9.14712 64.5918 6.73999 67.6676 6.73999C70.7612 6.73999 72.2768 9.20061 72.7671 10.529L73.0346 11.2066L65.0643 14.5052C65.6705 15.6999 66.6155 16.3061 67.9528 16.3061C69.2901 16.3061 70.2173 15.6464 70.886 14.6568ZM64.6363 12.5082L69.9588 10.2972C69.6646 9.55723 68.7909 9.03122 67.7478 9.03122C66.4194 9.03122 64.5739 10.208 64.6363 12.5082Z" fill="#FF302F"/>
<path d="M58.1992 0.668701H60.7668V18.107H58.1992V0.668701Z" fill="#20B15A"/>
<path d="M54.1519 7.20359H56.6303V17.795C56.6303 22.1902 54.036 24 50.9691 24C48.0806 24 46.3421 22.0565 45.6913 20.4785L47.9647 19.5335C48.3748 20.5052 49.3644 21.6553 50.9691 21.6553C52.9394 21.6553 54.1519 20.4339 54.1519 18.1516V17.2957H54.0627C53.4743 18.0089 52.351 18.6508 50.9245 18.6508C47.9468 18.6508 45.2188 16.0565 45.2188 12.7132C45.2188 9.35218 47.9468 6.73108 50.9245 6.73108C52.3421 6.73108 53.4743 7.36407 54.0627 8.05946H54.1519V7.20359ZM54.3302 12.7132C54.3302 10.6092 52.9305 9.0758 51.1474 9.0758C49.3465 9.0758 47.8309 10.6092 47.8309 12.7132C47.8309 14.7905 49.3465 16.2972 51.1474 16.2972C52.9305 16.3061 54.3302 14.7905 54.3302 12.7132Z" fill="#3686F7"/>
<path d="M31.1237 12.6687C31.1237 16.1011 28.4491 18.6241 25.1683 18.6241C21.8875 18.6241 19.2129 16.0922 19.2129 12.6687C19.2129 9.21846 21.8875 6.70435 25.1683 6.70435C28.4491 6.70435 31.1237 9.21846 31.1237 12.6687ZM28.5205 12.6687C28.5205 10.529 26.9692 9.05799 25.1683 9.05799C23.3674 9.05799 21.8162 10.529 21.8162 12.6687C21.8162 14.7905 23.3674 16.2794 25.1683 16.2794C26.9692 16.2794 28.5205 14.7905 28.5205 12.6687Z" fill="#FF302F"/>
<path d="M44.1306 12.6954C44.1306 16.1278 41.456 18.6508 38.1751 18.6508C34.8943 18.6508 32.2197 16.1278 32.2197 12.6954C32.2197 9.24519 34.8943 6.73999 38.1751 6.73999C41.456 6.73999 44.1306 9.23628 44.1306 12.6954ZM41.5184 12.6954C41.5184 10.5557 39.9671 9.08471 38.1662 9.08471C36.3653 9.08471 34.8141 10.5557 34.8141 12.6954C34.8141 14.8173 36.3653 16.3061 38.1662 16.3061C39.976 16.3061 41.5184 14.8083 41.5184 12.6954Z" fill="#FFBA40"/>
<path d="M9.42348 16.0386C5.68796 16.0386 2.76374 13.0253 2.76374 9.28975C2.76374 5.55423 5.68796 2.54086 9.42348 2.54086C11.4383 2.54086 12.9094 3.33432 13.997 4.35067L15.789 2.55869C14.2734 1.1055 12.2496 0 9.42348 0C4.30609 0 0 4.17236 0 9.28975C0 14.4071 4.30609 18.5795 9.42348 18.5795C12.1872 18.5795 14.2734 17.6701 15.9049 15.9762C17.581 14.3001 18.0981 11.9465 18.0981 10.0386C18.0981 9.44131 18.0267 8.82615 17.9465 8.37147H9.42348V10.8499H15.4948C15.3165 12.4012 14.8262 13.4621 14.104 14.1842C13.2303 15.0669 11.8484 16.0386 9.42348 16.0386Z" fill="#3686F7"/>
</svg>
