<svg width="22" height="22" viewBox="0 0 22 22" fill="none" xmlns="http://www.w3.org/2000/svg">
<path d="M19.7006 11.6475L20.2286 9.71546C20.8454 7.46046 21.1548 6.33346 20.923 5.35746C20.7393 4.58695 20.3263 3.88711 19.7364 3.34646C18.9899 2.66146 17.838 2.35946 15.5352 1.75546C13.2324 1.15046 12.0804 0.848458 11.0848 1.07546C10.2979 1.25537 9.58326 1.65975 9.03114 2.23746C8.4317 2.86346 8.11921 3.78046 7.65456 5.44646L7.40539 6.35146L6.87743 8.28346C6.2596 10.5385 5.9512 11.6655 6.18301 12.6415C6.36674 13.412 6.7797 14.1118 7.36965 14.6525C8.11615 15.3375 9.26806 15.6395 11.5709 16.2445C13.6459 16.7885 14.7866 17.0875 15.721 16.9745C15.8231 16.9625 15.9232 16.9445 16.0213 16.9225C16.8079 16.7431 17.5225 16.3394 18.0749 15.7625C18.7744 15.0305 19.0828 13.9025 19.7006 11.6475Z" stroke="#686868" stroke-width="1.5"/>
<path d="M15.7211 16.9744C15.5076 17.6148 15.1325 18.1919 14.6304 18.6524C13.8839 19.3374 12.732 19.6394 10.4292 20.2434C8.1264 20.8474 6.97449 21.1504 5.97882 20.9224C5.1921 20.7428 4.47743 20.3388 3.92518 19.7614C3.22566 19.0304 2.91624 17.9024 2.29943 15.6474L1.77147 13.7154C1.15365 11.4604 0.845245 10.3324 1.07706 9.35743C1.26078 8.58693 1.67374 7.88709 2.26369 7.34643C3.01019 6.66143 4.1621 6.35943 6.46491 5.75443C6.89994 5.64043 7.29515 5.53643 7.65461 5.44543" stroke="#686868" stroke-width="1.5"/>
<path d="M10.9849 9.00049L15.9173 10.2945M10.1914 11.8985L13.1508 12.6745" stroke="#686868" stroke-width="1.5" stroke-linecap="round"/>
</svg>
