<svg width="22" height="22" viewBox="0 0 22 22" fill="none" xmlns="http://www.w3.org/2000/svg">
<path d="M12.8329 16.501H9.1669C8.15601 16.501 7.33391 15.6789 7.33391 14.668V11.0021C7.33391 9.99117 8.15601 9.16907 9.1669 9.16907H12.8329C13.8438 9.16907 14.6659 9.99117 14.6659 11.0021V14.668C14.6659 15.6789 13.8438 16.501 12.8329 16.501ZM9.1669 11.0021V14.668H12.8347L12.8329 11.0021H9.1669ZM17.4154 22H4.58443C2.05765 22 0.00195312 19.9443 0.00195312 17.4175V8.91612C0.00195312 7.39016 0.757145 5.96959 2.02191 5.11725L8.43645 0.787727C9.99358 -0.262576 12.0062 -0.262576 13.5633 0.787727L19.9788 5.11725C21.2426 5.96959 21.9978 7.38924 21.9978 8.91612V17.4175C21.9978 19.9443 19.9421 22 17.4154 22ZM10.9999 1.83436C10.4647 1.83436 9.92942 1.992 9.46201 2.30819L3.04655 6.6368C2.28769 7.1482 1.83494 7.99963 1.83494 8.9152V17.4166C1.83494 18.9325 3.06854 20.1661 4.58443 20.1661H17.4154C18.9312 20.1661 20.1648 18.9325 20.1648 17.4166V8.91612C20.1648 8.00054 19.7121 7.1482 18.9541 6.63771L12.5378 2.30819C12.0704 1.992 11.5351 1.83436 10.9999 1.83436Z" fill="white" fill-opacity="0.6"/>
</svg>
