<svg width="56" height="56" viewBox="0 0 56 56" fill="none" xmlns="http://www.w3.org/2000/svg">
<path fill-rule="evenodd" clip-rule="evenodd" d="M14 7H42C45.866 7 49 10.134 49 14V42C49 45.866 45.866 49 42 49H14C10.134 49 7 45.866 7 42V14C7 10.134 10.134 7 14 7ZM14 10.1033L13.6638 10.1176C11.6691 10.2881 10.1033 11.9612 10.1033 14V42C10.1033 44.1521 11.8479 45.8967 14 45.8967H15.5555L31.887 24.4433C32.0944 24.1708 32.324 23.9159 32.5734 23.6812C35.0745 21.3277 39.0099 21.4473 41.3634 23.9484L45.8967 28.7659V14C45.8967 11.8479 44.1521 10.1033 42 10.1033H14ZM45.8967 33.2943L39.1034 26.0751C37.9244 24.8222 35.953 24.7623 34.7001 25.9413C34.5752 26.0588 34.4602 26.1865 34.3563 26.323L19.4558 45.8967H42C44.1521 45.8967 45.8967 44.1521 45.8967 42V33.2943ZM19.8333 23.3333C21.7663 23.3333 23.3333 21.7663 23.3333 19.8333C23.3333 17.9003 21.7663 16.3333 19.8333 16.3333C17.9003 16.3333 16.3333 17.9003 16.3333 19.8333C16.3333 21.7663 17.9003 23.3333 19.8333 23.3333ZM21 19.8333C21 20.4777 20.4777 21 19.8333 21C19.189 21 18.6667 20.4777 18.6667 19.8333C18.6667 19.189 19.189 18.6667 19.8333 18.6667C20.4777 18.6667 21 19.189 21 19.8333Z" fill="url(#paint0_linear_224_230)"/>
<defs>
<linearGradient id="paint0_linear_224_230" x1="26.6" y1="49" x2="26.6" y2="9.1" gradientUnits="userSpaceOnUse">
<stop stop-color="#F33F41"/>
<stop offset="1" stop-color="#FB6D72"/>
</linearGradient>
</defs>
</svg>
