<svg width="42" height="42" viewBox="0 0 42 42" fill="none" xmlns="http://www.w3.org/2000/svg">
<path fill-rule="evenodd" clip-rule="evenodd" d="M7 0H35C38.866 0 42 3.13401 42 7V35C42 38.866 38.866 42 35 42H7C3.13401 42 0 38.866 0 35V7C0 3.13401 3.13401 0 7 0ZM7 3.10333L6.66378 3.11764C4.66912 3.2881 3.10333 4.9612 3.10333 7V35C3.10333 37.1521 4.84793 38.8967 7 38.8967H8.55555L24.887 17.4433C25.0944 17.1708 25.324 16.9159 25.5734 16.6812C28.0745 14.3277 32.0099 14.4473 34.3634 16.9484L38.8967 21.7659V7C38.8967 4.84793 37.1521 3.10333 35 3.10333H7ZM38.8967 26.2943L32.1034 19.0751C30.9244 17.8222 28.953 17.7623 27.7001 18.9413C27.5752 19.0588 27.4602 19.1865 27.3563 19.323L12.4558 38.8967H35C37.1521 38.8967 38.8967 37.1521 38.8967 35V26.2943ZM12.8333 16.3333C14.7663 16.3333 16.3333 14.7663 16.3333 12.8333C16.3333 10.9003 14.7663 9.33333 12.8333 9.33333C10.9003 9.33333 9.33333 10.9003 9.33333 12.8333C9.33333 14.7663 10.9003 16.3333 12.8333 16.3333ZM14 12.8333C14 13.4777 13.4777 14 12.8333 14C12.189 14 11.6667 13.4777 11.6667 12.8333C11.6667 12.189 12.189 11.6667 12.8333 11.6667C13.4777 11.6667 14 12.189 14 12.8333Z" fill="black" fill-opacity="0.3"/>
</svg>
