<svg width="21" height="21" viewBox="0 0 21 21" fill="none" xmlns="http://www.w3.org/2000/svg">
<path d="M10.5008 0C13.2857 0 15.9566 1.10633 17.9259 3.0756C19.8952 5.04487 21.0015 7.71578 21.0015 10.5007C21.0015 13.2857 19.8952 15.9566 17.9259 17.9259C15.9566 19.8952 13.2857 21.0015 10.5008 21.0015C7.71578 21.0015 5.04487 19.8952 3.0756 17.9259C1.10633 15.9566 0 13.2857 0 10.5007C0 7.71578 1.10633 5.04487 3.0756 3.0756C5.04487 1.10633 7.71578 0 10.5008 0ZM12.0758 6.447C12.8558 6.447 13.4887 5.9055 13.4887 5.103C13.4887 4.3005 12.8542 3.759 12.0758 3.759C11.2957 3.759 10.6657 4.3005 10.6657 5.103C10.6657 5.9055 11.2957 6.447 12.0758 6.447ZM12.3502 14.8875C12.3502 14.727 12.4057 14.31 12.3742 14.073L11.1413 15.492C10.8863 15.7605 10.5667 15.9465 10.4167 15.897C10.3487 15.872 10.2918 15.8234 10.2564 15.7602C10.2209 15.697 10.2091 15.6231 10.2233 15.552L12.2782 9.06C12.4462 8.2365 11.9843 7.485 11.0048 7.389C9.97125 7.389 8.45025 8.4375 7.52475 9.768C7.52475 9.927 7.49475 10.323 7.52625 10.56L8.75775 9.1395C9.01275 8.874 9.30975 8.6865 9.45975 8.7375C9.53365 8.76402 9.59421 8.81847 9.62842 8.88914C9.66264 8.95981 9.66778 9.04108 9.64275 9.1155L7.60575 15.576C7.37025 16.332 7.81575 17.073 8.89575 17.241C10.4858 17.241 11.4248 16.218 12.3517 14.8875H12.3502Z" fill="url(#paint0_linear_1_9947)"/>
<defs>
<linearGradient id="paint0_linear_1_9947" x1="9.8007" y1="21.0015" x2="9.8007" y2="1.05008" gradientUnits="userSpaceOnUse">
<stop stop-color="#F33F41"/>
<stop offset="1" stop-color="#FB6D72"/>
</linearGradient>
</defs>
</svg>
