<svg width="43" height="42" viewBox="0 0 43 42" fill="none" xmlns="http://www.w3.org/2000/svg">
<rect x="0.5" width="42" height="42" rx="21" fill="#3E7B5A"/>
<path d="M16.2002 20.1272H26.8202V21.3173H16.2002V20.1272ZM16.2002 25.3636H22.7002V26.5536H16.2002V25.3636Z" fill="white"/>
<path d="M29.16 32.9999H13.84C13.52 32.9999 13.22 32.9404 12.92 32.8214C12.64 32.7024 12.38 32.5437 12.18 32.3256C11.96 32.1074 11.8 31.8694 11.68 31.5917C11.56 31.2942 11.5 30.9966 11.5 30.6793V14.871C11.5 14.5537 11.56 14.2561 11.68 13.9586C11.8 13.6809 11.96 13.4231 12.18 13.2247C12.4 13.0066 12.64 12.8479 12.92 12.7289C13.22 12.6099 13.52 12.5504 13.84 12.5504H16.16V13.7206H13.84C13.2 13.7206 12.66 14.2363 12.66 14.8908V30.6991C12.66 31.3338 13.18 31.8694 13.84 31.8694H29.14C29.78 31.8694 30.32 31.3537 30.32 30.6991V14.871C30.32 14.2363 29.8 13.7008 29.14 13.7008H26.84V12.5305H29.16C29.48 12.5305 29.78 12.59 30.08 12.709C30.36 12.828 30.62 12.9867 30.82 13.2049C31.04 13.4231 31.2 13.6611 31.32 13.9388C31.44 14.2363 31.5 14.5338 31.5 14.8512V30.6594C31.5 30.9768 31.44 31.2743 31.32 31.5718C31.2 31.8495 31.04 32.1074 30.82 32.3057C30.6 32.5239 30.36 32.6826 30.08 32.8016C29.78 32.9404 29.48 32.9999 29.16 32.9999Z" fill="white"/>
<path d="M27.3801 16.0413H15.6201V12.2331C15.6201 11.4198 16.2801 10.7653 17.1001 10.7653H18.6201C19.1601 9.69421 20.2801 9 21.5201 9C22.7601 9 23.8801 9.69421 24.4201 10.7653H25.9401C26.7601 10.7653 27.4201 11.4198 27.4201 12.2331L27.3801 16.0413ZM16.8001 14.8711H26.2201V12.2331C26.2201 12.0744 26.0801 11.9355 25.9201 11.9355H23.5801L23.4401 11.5388C23.1601 10.7256 22.3801 10.1702 21.5001 10.1702C20.6201 10.1702 19.8401 10.7256 19.5601 11.5388L19.4201 11.9355H17.0801C16.9201 11.9355 16.7801 12.0744 16.7801 12.2331V14.8711H16.8001Z" fill="white"/>
</svg>
