<svg width="24" height="24" viewBox="0 0 24 24" fill="none" xmlns="http://www.w3.org/2000/svg">
<rect width="24" height="24" rx="12" fill="url(#paint0_linear_1_8608)" fill-opacity="0.1"/>
<path d="M8.8197 11.4185H15.1917V12.2118H8.8197V11.4185ZM8.8197 14.9093H12.7197V15.7027H8.8197V14.9093Z" fill="url(#paint1_linear_1_8608)"/>
<path d="M16.596 19.9999H7.404C7.212 19.9999 7.032 19.9603 6.852 19.8809C6.684 19.8016 6.528 19.6958 6.408 19.5504C6.276 19.4049 6.18 19.2462 6.108 19.0611C6.036 18.8628 6 18.6644 6 18.4528V7.91408C6 7.70251 6.036 7.50416 6.108 7.30582C6.18 7.1207 6.276 6.9488 6.408 6.81657C6.54 6.67111 6.684 6.56533 6.852 6.48599C7.032 6.40665 7.212 6.36698 7.404 6.36698H8.796V7.14714H7.404C7.02 7.14714 6.696 7.49094 6.696 7.9273V18.4661C6.696 18.8892 7.008 19.2462 7.404 19.2462H16.584C16.968 19.2462 17.292 18.9024 17.292 18.4661V7.91408C17.292 7.49094 16.98 7.13392 16.584 7.13392H15.204V6.35376H16.596C16.788 6.35376 16.968 6.39343 17.148 6.47277C17.316 6.55211 17.472 6.65789 17.592 6.80334C17.724 6.9488 17.82 7.10747 17.892 7.2926C17.964 7.49094 18 7.68929 18 7.90086V18.4396C18 18.6512 17.964 18.8495 17.892 19.0479C17.82 19.233 17.724 19.4049 17.592 19.5371C17.46 19.6826 17.316 19.7884 17.148 19.8677C16.968 19.9603 16.788 19.9999 16.596 19.9999Z" fill="url(#paint2_linear_1_8608)"/>
<path d="M15.5278 8.69418H8.4718V6.15536C8.4718 5.61321 8.8678 5.17685 9.3598 5.17685H10.2718C10.5958 4.46281 11.2678 4 12.0118 4C12.7558 4 13.4278 4.46281 13.7518 5.17685H14.6638C15.1558 5.17685 15.5518 5.61321 15.5518 6.15536L15.5278 8.69418ZM9.1798 7.91402H14.8318V6.15536C14.8318 6.04957 14.7478 5.95701 14.6518 5.95701H13.2478L13.1638 5.69255C12.9958 5.1504 12.5278 4.78016 11.9998 4.78016C11.4718 4.78016 11.0038 5.1504 10.8358 5.69255L10.7518 5.95701H9.3478C9.2518 5.95701 9.1678 6.04957 9.1678 6.15536V7.91402H9.1798Z" fill="url(#paint3_linear_1_8608)"/>
<defs>
<linearGradient id="paint0_linear_1_8608" x1="11.2" y1="24" x2="11.2" y2="1.2" gradientUnits="userSpaceOnUse">
<stop stop-color="#F33F41"/>
<stop offset="1" stop-color="#FB6D72"/>
</linearGradient>
<linearGradient id="paint1_linear_1_8608" x1="11.7933" y1="15.7027" x2="11.7933" y2="11.6327" gradientUnits="userSpaceOnUse">
<stop stop-color="#F33F41"/>
<stop offset="1" stop-color="#FB6D72"/>
</linearGradient>
<linearGradient id="paint2_linear_1_8608" x1="11.6" y1="19.9999" x2="11.6" y2="7.03607" gradientUnits="userSpaceOnUse">
<stop stop-color="#F33F41"/>
<stop offset="1" stop-color="#FB6D72"/>
</linearGradient>
<linearGradient id="paint3_linear_1_8608" x1="11.7758" y1="8.69418" x2="11.7758" y2="4.23471" gradientUnits="userSpaceOnUse">
<stop stop-color="#F33F41"/>
<stop offset="1" stop-color="#FB6D72"/>
</linearGradient>
</defs>
</svg>
