<svg width="36" height="36" viewBox="0 0 36 36" fill="none" xmlns="http://www.w3.org/2000/svg">
<rect width="36" height="36" rx="18" fill="url(#paint0_linear_1_1399)"/>
<path d="M8.7326 14.3982V13.4102L11.6854 9.20659H13.1572V13.3024H13.9519V14.3982H13.1572V15.6737H11.8931V14.3982H8.7326ZM11.9743 10.5539L10.1232 13.3024H11.9743V10.5539Z" fill="white"/>
<path d="M14.7567 12.3144C14.7567 11.2785 14.9433 10.4671 15.3166 9.88025C15.6958 9.29342 16.3219 9 17.1948 9C18.0677 9 18.6907 9.29342 19.064 9.88025C19.4432 10.4671 19.6328 11.2785 19.6328 12.3144C19.6328 13.3563 19.4432 14.1737 19.064 14.7665C18.6907 15.3593 18.0677 15.6557 17.1948 15.6557C16.3219 15.6557 15.6958 15.3593 15.3166 14.7665C14.9433 14.1737 14.7567 13.3563 14.7567 12.3144ZM18.3867 12.3144C18.3867 11.8713 18.3566 11.5 18.2964 11.2006C18.2422 10.8952 18.1279 10.6467 17.9533 10.4551C17.7847 10.2635 17.5319 10.1677 17.1948 10.1677C16.8577 10.1677 16.6018 10.2635 16.4272 10.4551C16.2587 10.6467 16.1443 10.8952 16.0841 11.2006C16.0299 11.5 16.0028 11.8713 16.0028 12.3144C16.0028 12.7695 16.0299 13.1527 16.0841 13.4641C16.1383 13.7695 16.2527 14.018 16.4272 14.2096C16.6018 14.3952 16.8577 14.4881 17.1948 14.4881C17.5319 14.4881 17.7877 14.3952 17.9623 14.2096C18.1369 14.018 18.2513 13.7695 18.3055 13.4641C18.3596 13.1527 18.3867 12.7695 18.3867 12.3144Z" fill="white"/>
<path d="M20.4499 10.7335C20.4499 10.2785 20.5823 9.92216 20.8472 9.66468C21.1181 9.40719 21.4643 9.27845 21.8857 9.27845C22.3071 9.27845 22.6502 9.40719 22.9151 9.66468C23.186 9.92216 23.3214 10.2785 23.3214 10.7335C23.3214 11.1946 23.186 11.5539 22.9151 11.8114C22.6502 12.0689 22.3071 12.1976 21.8857 12.1976C21.4643 12.1976 21.1181 12.0689 20.8472 11.8114C20.5823 11.5539 20.4499 11.1946 20.4499 10.7335ZM26.2471 9.38623L22.6983 15.6737H21.4703L25.01 9.38623H26.2471ZM21.8766 10.0329C21.5455 10.0329 21.38 10.2665 21.38 10.7335C21.38 11.2066 21.5455 11.4431 21.8766 11.4431C22.0392 11.4431 22.1656 11.3862 22.2559 11.2725C22.3462 11.1527 22.3913 10.9731 22.3913 10.7335C22.3913 10.2665 22.2198 10.0329 21.8766 10.0329ZM24.414 14.3174C24.414 13.8563 24.5465 13.5 24.8113 13.2485C25.0822 12.991 25.4284 12.8623 25.8498 12.8623C26.2712 12.8623 26.6113 12.991 26.8701 13.2485C27.135 13.5 27.2675 13.8563 27.2675 14.3174C27.2675 14.7785 27.135 15.1378 26.8701 15.3953C26.6113 15.6527 26.2712 15.7815 25.8498 15.7815C25.4224 15.7815 25.0762 15.6527 24.8113 15.3953C24.5465 15.1378 24.414 14.7785 24.414 14.3174ZM25.8407 13.6168C25.4976 13.6168 25.326 13.8503 25.326 14.3174C25.326 14.7905 25.4976 15.027 25.8407 15.027C26.1779 15.027 26.3464 14.7905 26.3464 14.3174C26.3464 13.8503 26.1779 13.6168 25.8407 13.6168Z" fill="white"/>
<path d="M11.4237 27C10.6164 27 9.87496 26.8218 9.19947 26.4653C8.52398 26.1087 7.98853 25.6166 7.59312 24.9888C7.19771 24.3533 7 23.6364 7 22.8381C7 22.0476 7.19771 21.3385 7.59312 20.7107C7.98853 20.0752 8.52398 19.5791 9.19947 19.2226C9.87496 18.8661 10.6164 18.6879 11.4237 18.6879C12.2392 18.6879 12.9806 18.8661 13.6478 19.2226C14.3233 19.5791 14.8547 20.0752 15.2418 20.7107C15.6372 21.3385 15.8349 22.0476 15.8349 22.8381C15.8349 23.6364 15.6372 24.3533 15.2418 24.9888C14.8547 25.6166 14.3233 26.1087 13.6478 26.4653C12.9723 26.8218 12.2309 27 11.4237 27ZM11.4237 25.5469C11.9426 25.5469 12.3998 25.4384 12.7952 25.2213C13.1906 24.9966 13.4996 24.6788 13.722 24.2681C13.9444 23.8573 14.0556 23.3807 14.0556 22.8381C14.0556 22.2956 13.9444 21.8228 13.722 21.4198C13.4996 21.0091 13.1906 20.6952 12.7952 20.4782C12.3998 20.2612 11.9426 20.1527 11.4237 20.1527C10.9047 20.1527 10.4434 20.2612 10.0397 20.4782C9.64431 20.6952 9.33539 21.0091 9.11297 21.4198C8.89056 21.8228 8.77935 22.2956 8.77935 22.8381C8.77935 23.3807 8.89056 23.8573 9.11297 24.2681C9.33539 24.6788 9.64431 24.9966 10.0397 25.2213C10.4434 25.4384 10.9047 25.5469 11.4237 25.5469Z" fill="white"/>
<path d="M22.4476 18.8041V20.1178H18.8519V22.1987H21.6074V23.4892H18.8519V26.9187H17.122V18.8041H22.4476Z" fill="white"/>
<path d="M29 18.8041V20.1178H25.4042V22.1987H28.1598V23.4892H25.4042V26.9187H23.6743V18.8041H29Z" fill="white"/>
<defs>
<linearGradient id="paint0_linear_1_1399" x1="16.8" y1="36" x2="16.8" y2="1.8" gradientUnits="userSpaceOnUse">
<stop stop-color="#F33F41"/>
<stop offset="1" stop-color="#FB6D72"/>
</linearGradient>
</defs>
</svg>
