<svg width="24" height="24" viewBox="0 0 24 24" fill="none" xmlns="http://www.w3.org/2000/svg">
<g clip-path="url(#clip0_21_267)">
<path d="M23.0325 5.46751L18.5325 0.967513C18.4624 0.898001 18.3793 0.843008 18.2879 0.805684C18.1966 0.768361 18.0987 0.749442 18 0.750013H16.5V6.75001C16.5 7.14784 16.342 7.52937 16.0607 7.81067C15.7794 8.09198 15.3978 8.25001 15 8.25001H9C8.60218 8.25001 8.22064 8.09198 7.93934 7.81067C7.65804 7.52937 7.5 7.14784 7.5 6.75001V0.750013H3C2.40326 0.750013 1.83097 0.987065 1.40901 1.40902C0.987053 1.83098 0.75 2.40328 0.75 3.00001V21C0.75 21.5968 0.987053 22.169 1.40901 22.591C1.83097 23.013 2.40326 23.25 3 23.25H4.5V16.5C4.5 15.9033 4.73705 15.331 5.15901 14.909C5.58097 14.4871 6.15326 14.25 6.75 14.25H17.25C17.8467 14.25 18.419 14.4871 18.841 14.909C19.2629 15.331 19.5 15.9033 19.5 16.5V23.25H21C21.5967 23.25 22.169 23.013 22.591 22.591C23.0129 22.169 23.25 21.5968 23.25 21V6.00001C23.2506 5.90131 23.2317 5.80346 23.1943 5.71208C23.157 5.6207 23.102 5.53759 23.0325 5.46751Z" fill="url(#paint0_linear_21_267)"/>
<path d="M9 0.75H15V6.75H9V0.75Z" fill="url(#paint1_linear_21_267)"/>
<path d="M17.25 15.75H6.75C6.55109 15.75 6.36032 15.829 6.21967 15.9697C6.07902 16.1103 6 16.3011 6 16.5V23.25H18V16.5C18 16.3011 17.921 16.1103 17.7803 15.9697C17.6397 15.829 17.4489 15.75 17.25 15.75Z" fill="url(#paint2_linear_21_267)"/>
</g>
<defs>
<linearGradient id="paint0_linear_21_267" x1="11.25" y1="23.25" x2="11.25" y2="1.875" gradientUnits="userSpaceOnUse">
<stop stop-color="#F33F41"/>
<stop offset="1" stop-color="#FB6D72"/>
</linearGradient>
<linearGradient id="paint1_linear_21_267" x1="11.8" y1="6.75" x2="11.8" y2="1.05" gradientUnits="userSpaceOnUse">
<stop stop-color="#F33F41"/>
<stop offset="1" stop-color="#FB6D72"/>
</linearGradient>
<linearGradient id="paint2_linear_21_267" x1="11.6" y1="23.25" x2="11.6" y2="16.125" gradientUnits="userSpaceOnUse">
<stop stop-color="#F33F41"/>
<stop offset="1" stop-color="#FB6D72"/>
</linearGradient>
<clipPath id="clip0_21_267">
<rect width="24" height="24" fill="white"/>
</clipPath>
</defs>
</svg>
