<svg width="42" height="42" viewBox="0 0 42 42" fill="none" xmlns="http://www.w3.org/2000/svg">
<rect width="42.0031" height="42" rx="21" fill="url(#paint0_linear_1_8953)"/>
<path d="M12.1269 14.7794C11.8359 13.9828 12.0549 13.1006 12.6858 12.5327C13.3152 11.9671 14.2116 11.8396 14.9723 12.2094L28.5425 18.5437C29.2702 18.8843 29.7908 19.5061 30.0016 20.2488H15.0345L12.1697 14.8747C12.1539 14.8439 12.1397 14.8117 12.1269 14.7794ZM15.045 21.7498L12.2297 27.1322C12.214 27.1622 12.2005 27.1922 12.1892 27.2237C11.8989 28.0211 12.1202 28.9018 12.7511 29.4689C13.1419 29.8192 13.6355 30 14.1321 30C14.4389 30 14.7465 29.931 15.033 29.7907L28.544 23.4609C29.2739 23.1189 29.7938 22.4947 30.0031 21.7506H15.045V21.7498Z" fill="white"/>
<defs>
<linearGradient id="paint0_linear_1_8953" x1="19.6014" y1="42" x2="19.6014" y2="2.1" gradientUnits="userSpaceOnUse">
<stop stop-color="#F33F41"/>
<stop offset="1" stop-color="#FB6D72"/>
</linearGradient>
</defs>
</svg>
