<svg width="26" height="7" viewBox="0 0 26 7" fill="none" xmlns="http://www.w3.org/2000/svg">
<path fill-rule="evenodd" clip-rule="evenodd" d="M3 0.240723C1.35 0.240723 0 1.59072 0 3.24072C0 4.89072 1.35 6.24072 3 6.24072C4.65 6.24072 6 4.89072 6 3.24072C6 1.59072 4.65 0.240723 3 0.240723ZM22.5 0.240723C20.85 0.240723 19.5 1.59072 19.5 3.24072C19.5 4.89072 20.85 6.24072 22.5 6.24072C24.15 6.24072 25.5 4.89072 25.5 3.24072C25.5 1.59072 24.15 0.240723 22.5 0.240723ZM12.75 0.240723C11.1 0.240723 9.75 1.59072 9.75 3.24072C9.75 4.89072 11.1 6.24072 12.75 6.24072C14.4 6.24072 15.75 4.89072 15.75 3.24072C15.75 1.59072 14.4 0.240723 12.75 0.240723Z" fill="white"/>
</svg>
