<svg width="26" height="27" viewBox="0 0 26 27" fill="none" xmlns="http://www.w3.org/2000/svg">
<path d="M6.5 16.4907C8.29493 16.4907 9.75 15.0356 9.75 13.2407C9.75 11.4458 8.29493 9.99072 6.5 9.99072C4.70507 9.99072 3.25 11.4458 3.25 13.2407C3.25 15.0356 4.70507 16.4907 6.5 16.4907Z" stroke="white" stroke-width="2" stroke-linecap="round" stroke-linejoin="round"/>
<path d="M17.875 23.8032C19.6699 23.8032 21.125 22.3481 21.125 20.5532C21.125 18.7583 19.6699 17.3032 17.875 17.3032C16.0801 17.3032 14.625 18.7583 14.625 20.5532C14.625 22.3481 16.0801 23.8032 17.875 23.8032Z" stroke="white" stroke-width="2" stroke-linecap="round" stroke-linejoin="round"/>
<path d="M17.875 9.17822C19.6699 9.17822 21.125 7.72315 21.125 5.92822C21.125 4.1333 19.6699 2.67822 17.875 2.67822C16.0801 2.67822 14.625 4.1333 14.625 5.92822C14.625 7.72315 16.0801 9.17822 17.875 9.17822Z" stroke="white" stroke-width="2" stroke-linecap="round" stroke-linejoin="round"/>
<path d="M15.1414 7.68555L9.2334 11.4836" stroke="white" stroke-width="2" stroke-linecap="round" stroke-linejoin="round"/>
<path d="M9.2334 14.9979L15.1414 18.7959" stroke="white" stroke-width="2" stroke-linecap="round" stroke-linejoin="round"/>
</svg>
