<svg width="25" height="24" viewBox="0 0 25 24" fill="none" xmlns="http://www.w3.org/2000/svg">
<path d="M3.50977 11.22V15.71C3.50977 20.2 5.30977 22 9.79977 22H15.1898C19.6798 22 21.4798 20.2 21.4798 15.71V11.22" stroke="white" stroke-opacity="0.6" stroke-width="1.5" stroke-linecap="round" stroke-linejoin="round"/>
<path d="M12.5005 12C14.3305 12 15.6805 10.51 15.5005 8.68L14.8405 2H10.1705L9.50048 8.68C9.32048 10.51 10.6705 12 12.5005 12Z" stroke="white" stroke-opacity="0.6" stroke-width="1.5" stroke-linecap="round" stroke-linejoin="round"/>
<path d="M18.8098 12C20.8298 12 22.3098 10.36 22.1098 8.35L21.8298 5.6C21.4698 3 20.4698 2 17.8498 2H14.7998L15.4998 9.01C15.6698 10.66 17.1598 12 18.8098 12Z" stroke="white" stroke-opacity="0.6" stroke-width="1.5" stroke-linecap="round" stroke-linejoin="round"/>
<path d="M6.14037 12C7.79037 12 9.28037 10.66 9.44037 9.01L9.66037 6.8L10.1404 2H7.09037C4.47037 2 3.47037 3 3.11037 5.6L2.84037 8.35C2.64037 10.36 4.12037 12 6.14037 12Z" stroke="white" stroke-opacity="0.6" stroke-width="1.5" stroke-linecap="round" stroke-linejoin="round"/>
<path d="M12.5 17C10.83 17 10 17.83 10 19.5V22H15V19.5C15 17.83 14.17 17 12.5 17Z" stroke="white" stroke-opacity="0.6" stroke-width="1.5" stroke-linecap="round" stroke-linejoin="round"/>
</svg>
