<svg width="116" height="20" viewBox="0 0 116 20" fill="none" xmlns="http://www.w3.org/2000/svg">
<rect width="115.996" height="20" rx="4" fill="#3886E2"/>
<path d="M21.62 9.10265L20.404 7.88483C20.196 7.67652 20.028 7.2679 20.028 6.97947V5.24887C20.028 4.54382 19.452 3.96695 18.748 3.96695H17.028C16.74 3.96695 16.332 3.7987 16.124 3.59039L14.908 2.37256C14.412 1.87581 13.596 1.87581 13.1 2.37256L11.868 3.59039C11.668 3.7987 11.26 3.96695 10.964 3.96695H9.244C8.54 3.96695 7.964 4.54382 7.964 5.24887V6.97146C7.964 7.25989 7.796 7.6685 7.588 7.87682L6.372 9.09464C5.876 9.59139 5.876 10.4086 6.372 10.9054L7.588 12.1232C7.796 12.3315 7.964 12.7401 7.964 13.0285V14.7511C7.964 15.4562 8.54 16.0331 9.244 16.0331H10.964C11.252 16.0331 11.66 16.2013 11.868 16.4096L13.084 17.6274C13.58 18.1242 14.396 18.1242 14.892 17.6274L16.108 16.4096C16.316 16.2013 16.724 16.0331 17.012 16.0331H18.732C19.436 16.0331 20.012 15.4562 20.012 14.7511V13.0285C20.012 12.7401 20.18 12.3315 20.388 12.1232L21.604 10.9054C22.124 10.4166 22.124 9.5994 21.62 9.10265ZM10.796 7.60441C10.796 7.16375 11.156 6.80321 11.596 6.80321C12.036 6.80321 12.396 7.60441 12.396 7.60441C12.396 7.60441 12.0378 8.40561 11.596 8.40561C11.596 8.40561 10.796 8.04507 10.796 7.60441ZM12.02 12.8363C11.9 12.9564 11.748 13.0125 11.596 13.0125C11.444 13.0125 11.292 12.9564 11.172 12.8363C10.94 12.6039 10.94 12.2193 11.172 11.987L15.972 7.17977C16.204 6.94742 16.588 6.94742 16.82 7.17977C17.052 7.41212 17.052 7.79669 16.82 8.02904L12.02 12.8363ZM16.396 13.2128C15.948 13.2128 15.588 12.8523 15.588 12.4116C15.588 11.971 15.948 11.6104 16.388 11.6104C16.828 11.6104 17.188 11.971 17.188 12.4116C17.188 12.8523 16.836 13.2128 16.396 13.2128Z" fill="white"/>
<ellipse cx="14.4002" cy="10.012" rx="5.2" ry="4.80721" fill="white"/>
<path fill-rule="evenodd" clip-rule="evenodd" d="M13.8417 10.8666C13.2569 11.4248 12.3365 11.4246 11.7519 10.8661L11.047 10.1927C10.8585 10.0125 10.5618 10.012 10.3726 10.1915C10.1699 10.3838 10.1693 10.7067 10.3714 10.8998L11.4645 11.9442C12.2098 12.6563 13.3834 12.6563 14.1287 11.9442L18.4311 7.83361C18.6321 7.64163 18.6321 7.32076 18.4311 7.12878C18.2428 6.94886 17.9463 6.94879 17.7579 7.12862L13.8417 10.8666Z" fill="#3886E2"/>
<path d="M33.5332 11.8438C33.5332 11.6445 33.502 11.4688 33.4395 11.3164C33.3809 11.1602 33.2754 11.0195 33.123 10.8945C32.9746 10.7695 32.7676 10.6504 32.502 10.5371C32.2402 10.4238 31.9082 10.3086 31.5059 10.1914C31.084 10.0664 30.7031 9.92773 30.3633 9.77539C30.0234 9.61914 29.7324 9.44141 29.4902 9.24219C29.248 9.04297 29.0625 8.81445 28.9336 8.55664C28.8047 8.29883 28.7402 8.00391 28.7402 7.67188C28.7402 7.33984 28.8086 7.0332 28.9453 6.75195C29.082 6.4707 29.2773 6.22656 29.5312 6.01953C29.7891 5.80859 30.0957 5.64453 30.4512 5.52734C30.8066 5.41016 31.2031 5.35156 31.6406 5.35156C32.2812 5.35156 32.8242 5.47461 33.2695 5.7207C33.7188 5.96289 34.0605 6.28125 34.2949 6.67578C34.5293 7.06641 34.6465 7.48438 34.6465 7.92969H33.5215C33.5215 7.60938 33.4531 7.32617 33.3164 7.08008C33.1797 6.83008 32.9727 6.63477 32.6953 6.49414C32.418 6.34961 32.0664 6.27734 31.6406 6.27734C31.2383 6.27734 30.9062 6.33789 30.6445 6.45898C30.3828 6.58008 30.1875 6.74414 30.0586 6.95117C29.9336 7.1582 29.8711 7.39453 29.8711 7.66016C29.8711 7.83984 29.9082 8.00391 29.9824 8.15234C30.0605 8.29688 30.1797 8.43164 30.3398 8.55664C30.5039 8.68164 30.7109 8.79688 30.9609 8.90234C31.2148 9.00781 31.5176 9.10938 31.8691 9.20703C32.3535 9.34375 32.7715 9.49609 33.123 9.66406C33.4746 9.83203 33.7637 10.0215 33.9902 10.2324C34.2207 10.4395 34.3906 10.6758 34.5 10.9414C34.6133 11.2031 34.6699 11.5 34.6699 11.832C34.6699 12.1797 34.5996 12.4941 34.459 12.7754C34.3184 13.0566 34.1172 13.2969 33.8555 13.4961C33.5938 13.6953 33.2793 13.8496 32.9121 13.959C32.5488 14.0645 32.1426 14.1172 31.6934 14.1172C31.2988 14.1172 30.9102 14.0625 30.5273 13.9531C30.1484 13.8438 29.8027 13.6797 29.4902 13.4609C29.1816 13.2422 28.9336 12.9727 28.7461 12.6523C28.5625 12.3281 28.4707 11.9531 28.4707 11.5273H29.5957C29.5957 11.8203 29.6523 12.0723 29.7656 12.2832C29.8789 12.4902 30.0332 12.6621 30.2285 12.7988C30.4277 12.9355 30.6523 13.0371 30.9023 13.1035C31.1562 13.166 31.4199 13.1973 31.6934 13.1973C32.0879 13.1973 32.4219 13.1426 32.6953 13.0332C32.9688 12.9238 33.1758 12.7676 33.3164 12.5645C33.4609 12.3613 33.5332 12.1211 33.5332 11.8438ZM37.0312 8.87891V16.4375H35.9414V7.66016H36.9375L37.0312 8.87891ZM41.3027 10.7773V10.9004C41.3027 11.3613 41.248 11.7891 41.1387 12.1836C41.0293 12.5742 40.8691 12.9141 40.6582 13.2031C40.4512 13.4922 40.1953 13.7168 39.8906 13.877C39.5859 14.0371 39.2363 14.1172 38.8418 14.1172C38.4395 14.1172 38.084 14.0508 37.7754 13.918C37.4668 13.7852 37.2051 13.5918 36.9902 13.3379C36.7754 13.084 36.6035 12.7793 36.4746 12.4238C36.3496 12.0684 36.2637 11.668 36.2168 11.2227V10.5664C36.2637 10.0977 36.3516 9.67773 36.4805 9.30664C36.6094 8.93555 36.7793 8.61914 36.9902 8.35742C37.2051 8.0918 37.4648 7.89062 37.7695 7.75391C38.0742 7.61328 38.4258 7.54297 38.8242 7.54297C39.2227 7.54297 39.5762 7.62109 39.8848 7.77734C40.1934 7.92969 40.4531 8.14844 40.6641 8.43359C40.875 8.71875 41.0332 9.06055 41.1387 9.45898C41.248 9.85352 41.3027 10.293 41.3027 10.7773ZM40.2129 10.9004V10.7773C40.2129 10.4609 40.1797 10.1641 40.1133 9.88672C40.0469 9.60547 39.9434 9.35938 39.8027 9.14844C39.666 8.93359 39.4902 8.76562 39.2754 8.64453C39.0605 8.51953 38.8047 8.45703 38.5078 8.45703C38.2344 8.45703 37.9961 8.50391 37.793 8.59766C37.5938 8.69141 37.4238 8.81836 37.2832 8.97852C37.1426 9.13477 37.0273 9.31445 36.9375 9.51758C36.8516 9.7168 36.7871 9.92383 36.7441 10.1387V11.6562C36.8223 11.9297 36.9316 12.1875 37.0723 12.4297C37.2129 12.668 37.4004 12.8613 37.6348 13.0098C37.8691 13.1543 38.1641 13.2266 38.5195 13.2266C38.8125 13.2266 39.0645 13.166 39.2754 13.0449C39.4902 12.9199 39.666 12.75 39.8027 12.5352C39.9434 12.3203 40.0469 12.0742 40.1133 11.7969C40.1797 11.5156 40.2129 11.2168 40.2129 10.9004ZM42.3984 10.9004V10.7656C42.3984 10.3086 42.4648 9.88477 42.5977 9.49414C42.7305 9.09961 42.9219 8.75781 43.1719 8.46875C43.4219 8.17578 43.7246 7.94922 44.0801 7.78906C44.4355 7.625 44.834 7.54297 45.2754 7.54297C45.7207 7.54297 46.1211 7.625 46.4766 7.78906C46.8359 7.94922 47.1406 8.17578 47.3906 8.46875C47.6445 8.75781 47.8379 9.09961 47.9707 9.49414C48.1035 9.88477 48.1699 10.3086 48.1699 10.7656V10.9004C48.1699 11.3574 48.1035 11.7812 47.9707 12.1719C47.8379 12.5625 47.6445 12.9043 47.3906 13.1973C47.1406 13.4863 46.8379 13.7129 46.4824 13.877C46.1309 14.0371 45.7324 14.1172 45.2871 14.1172C44.8418 14.1172 44.4414 14.0371 44.0859 13.877C43.7305 13.7129 43.4258 13.4863 43.1719 13.1973C42.9219 12.9043 42.7305 12.5625 42.5977 12.1719C42.4648 11.7812 42.3984 11.3574 42.3984 10.9004ZM43.4824 10.7656V10.9004C43.4824 11.2168 43.5195 11.5156 43.5938 11.7969C43.668 12.0742 43.7793 12.3203 43.9277 12.5352C44.0801 12.75 44.2695 12.9199 44.4961 13.0449C44.7227 13.166 44.9863 13.2266 45.2871 13.2266C45.584 13.2266 45.8438 13.166 46.0664 13.0449C46.293 12.9199 46.4805 12.75 46.6289 12.5352C46.7773 12.3203 46.8887 12.0742 46.9629 11.7969C47.041 11.5156 47.0801 11.2168 47.0801 10.9004V10.7656C47.0801 10.4531 47.041 10.1582 46.9629 9.88086C46.8887 9.59961 46.7754 9.35156 46.623 9.13672C46.4746 8.91797 46.2871 8.74609 46.0605 8.62109C45.8379 8.49609 45.5762 8.43359 45.2754 8.43359C44.9785 8.43359 44.7168 8.49609 44.4902 8.62109C44.2676 8.74609 44.0801 8.91797 43.9277 9.13672C43.7793 9.35156 43.668 9.59961 43.5938 9.88086C43.5195 10.1582 43.4824 10.4531 43.4824 10.7656ZM50.6133 9.01367V14H49.5293V7.66016H50.5547L50.6133 9.01367ZM50.3555 10.5898L49.9043 10.5723C49.9082 10.1387 49.9727 9.73828 50.0977 9.37109C50.2227 9 50.3984 8.67773 50.625 8.4043C50.8516 8.13086 51.1211 7.91992 51.4336 7.77148C51.75 7.61914 52.0996 7.54297 52.4824 7.54297C52.7949 7.54297 53.0762 7.58594 53.3262 7.67188C53.5762 7.75391 53.7891 7.88672 53.9648 8.07031C54.1445 8.25391 54.2812 8.49219 54.375 8.78516C54.4688 9.07422 54.5156 9.42773 54.5156 9.8457V14H53.4258V9.83398C53.4258 9.50195 53.377 9.23633 53.2793 9.03711C53.1816 8.83398 53.0391 8.6875 52.8516 8.59766C52.6641 8.50391 52.4336 8.45703 52.1602 8.45703C51.8906 8.45703 51.6445 8.51367 51.4219 8.62695C51.2031 8.74023 51.0137 8.89648 50.8535 9.0957C50.6973 9.29492 50.5742 9.52344 50.4844 9.78125C50.3984 10.0352 50.3555 10.3047 50.3555 10.5898ZM59.8535 12.3184C59.8535 12.1621 59.8184 12.0176 59.748 11.8848C59.6816 11.748 59.543 11.625 59.332 11.5156C59.125 11.4023 58.8125 11.3047 58.3945 11.2227C58.043 11.1484 57.7246 11.0605 57.4395 10.959C57.1582 10.8574 56.918 10.7344 56.7188 10.5898C56.5234 10.4453 56.373 10.2754 56.2676 10.0801C56.1621 9.88477 56.1094 9.65625 56.1094 9.39453C56.1094 9.14453 56.1641 8.9082 56.2734 8.68555C56.3867 8.46289 56.5449 8.26562 56.748 8.09375C56.9551 7.92188 57.2031 7.78711 57.4922 7.68945C57.7812 7.5918 58.1035 7.54297 58.459 7.54297C58.9668 7.54297 59.4004 7.63281 59.7598 7.8125C60.1191 7.99219 60.3945 8.23242 60.5859 8.5332C60.7773 8.83008 60.873 9.16016 60.873 9.52344H59.7891C59.7891 9.34766 59.7363 9.17773 59.6309 9.01367C59.5293 8.8457 59.3789 8.70703 59.1797 8.59766C58.9844 8.48828 58.7441 8.43359 58.459 8.43359C58.1582 8.43359 57.9141 8.48047 57.7266 8.57422C57.543 8.66406 57.4082 8.7793 57.3223 8.91992C57.2402 9.06055 57.1992 9.20898 57.1992 9.36523C57.1992 9.48242 57.2188 9.58789 57.2578 9.68164C57.3008 9.77148 57.375 9.85547 57.4805 9.93359C57.5859 10.0078 57.7344 10.0781 57.9258 10.1445C58.1172 10.2109 58.3613 10.2773 58.6582 10.3438C59.1777 10.4609 59.6055 10.6016 59.9414 10.7656C60.2773 10.9297 60.5273 11.1309 60.6914 11.3691C60.8555 11.6074 60.9375 11.8965 60.9375 12.2363C60.9375 12.5137 60.8789 12.7676 60.7617 12.998C60.6484 13.2285 60.4824 13.4277 60.2637 13.5957C60.0488 13.7598 59.791 13.8887 59.4902 13.9824C59.1934 14.0723 58.8594 14.1172 58.4883 14.1172C57.9297 14.1172 57.457 14.0176 57.0703 13.8184C56.6836 13.6191 56.3906 13.3613 56.1914 13.0449C55.9922 12.7285 55.8926 12.3945 55.8926 12.043H56.9824C56.998 12.3398 57.084 12.5762 57.2402 12.752C57.3965 12.9238 57.5879 13.0469 57.8145 13.1211C58.041 13.1914 58.2656 13.2266 58.4883 13.2266C58.7852 13.2266 59.0332 13.1875 59.2324 13.1094C59.4355 13.0312 59.5898 12.9238 59.6953 12.7871C59.8008 12.6504 59.8535 12.4941 59.8535 12.3184ZM62.0742 10.9004V10.7656C62.0742 10.3086 62.1406 9.88477 62.2734 9.49414C62.4062 9.09961 62.5977 8.75781 62.8477 8.46875C63.0977 8.17578 63.4004 7.94922 63.7559 7.78906C64.1113 7.625 64.5098 7.54297 64.9512 7.54297C65.3965 7.54297 65.7969 7.625 66.1523 7.78906C66.5117 7.94922 66.8164 8.17578 67.0664 8.46875C67.3203 8.75781 67.5137 9.09961 67.6465 9.49414C67.7793 9.88477 67.8457 10.3086 67.8457 10.7656V10.9004C67.8457 11.3574 67.7793 11.7812 67.6465 12.1719C67.5137 12.5625 67.3203 12.9043 67.0664 13.1973C66.8164 13.4863 66.5137 13.7129 66.1582 13.877C65.8066 14.0371 65.4082 14.1172 64.9629 14.1172C64.5176 14.1172 64.1172 14.0371 63.7617 13.877C63.4062 13.7129 63.1016 13.4863 62.8477 13.1973C62.5977 12.9043 62.4062 12.5625 62.2734 12.1719C62.1406 11.7812 62.0742 11.3574 62.0742 10.9004ZM63.1582 10.7656V10.9004C63.1582 11.2168 63.1953 11.5156 63.2695 11.7969C63.3438 12.0742 63.4551 12.3203 63.6035 12.5352C63.7559 12.75 63.9453 12.9199 64.1719 13.0449C64.3984 13.166 64.6621 13.2266 64.9629 13.2266C65.2598 13.2266 65.5195 13.166 65.7422 13.0449C65.9688 12.9199 66.1562 12.75 66.3047 12.5352C66.4531 12.3203 66.5645 12.0742 66.6387 11.7969C66.7168 11.5156 66.7559 11.2168 66.7559 10.9004V10.7656C66.7559 10.4531 66.7168 10.1582 66.6387 9.88086C66.5645 9.59961 66.4512 9.35156 66.2988 9.13672C66.1504 8.91797 65.9629 8.74609 65.7363 8.62109C65.5137 8.49609 65.252 8.43359 64.9512 8.43359C64.6543 8.43359 64.3926 8.49609 64.166 8.62109C63.9434 8.74609 63.7559 8.91797 63.6035 9.13672C63.4551 9.35156 63.3438 9.59961 63.2695 9.88086C63.1953 10.1582 63.1582 10.4531 63.1582 10.7656ZM70.2891 8.65625V14H69.2051V7.66016H70.2598L70.2891 8.65625ZM72.2695 7.625L72.2637 8.63281C72.1738 8.61328 72.0879 8.60156 72.0059 8.59766C71.9277 8.58984 71.8379 8.58594 71.7363 8.58594C71.4863 8.58594 71.2656 8.625 71.0742 8.70312C70.8828 8.78125 70.7207 8.89062 70.5879 9.03125C70.4551 9.17188 70.3496 9.33984 70.2715 9.53516C70.1973 9.72656 70.1484 9.9375 70.125 10.168L69.8203 10.3438C69.8203 9.96094 69.8574 9.60156 69.9316 9.26562C70.0098 8.92969 70.1289 8.63281 70.2891 8.375C70.4492 8.11328 70.6523 7.91016 70.8984 7.76562C71.1484 7.61719 71.4453 7.54297 71.7891 7.54297C71.8672 7.54297 71.957 7.55273 72.0586 7.57227C72.1602 7.58789 72.2305 7.60547 72.2695 7.625ZM75.7852 14.1172C75.3438 14.1172 74.9434 14.043 74.584 13.8945C74.2285 13.7422 73.9219 13.5293 73.6641 13.2559C73.4102 12.9824 73.2148 12.6582 73.0781 12.2832C72.9414 11.9082 72.873 11.498 72.873 11.0527V10.8066C72.873 10.291 72.9492 9.83203 73.1016 9.42969C73.2539 9.02344 73.4609 8.67969 73.7227 8.39844C73.9844 8.11719 74.2812 7.9043 74.6133 7.75977C74.9453 7.61523 75.2891 7.54297 75.6445 7.54297C76.0977 7.54297 76.4883 7.62109 76.8164 7.77734C77.1484 7.93359 77.4199 8.15234 77.6309 8.43359C77.8418 8.71094 77.998 9.03906 78.0996 9.41797C78.2012 9.79297 78.252 10.2031 78.252 10.6484V11.1348H73.5176V10.25H77.168V10.168C77.1523 9.88672 77.0938 9.61328 76.9922 9.34766C76.8945 9.08203 76.7383 8.86328 76.5234 8.69141C76.3086 8.51953 76.0156 8.43359 75.6445 8.43359C75.3984 8.43359 75.1719 8.48633 74.9648 8.5918C74.7578 8.69336 74.5801 8.8457 74.4316 9.04883C74.2832 9.25195 74.168 9.5 74.0859 9.79297C74.0039 10.0859 73.9629 10.4238 73.9629 10.8066V11.0527C73.9629 11.3535 74.0039 11.6367 74.0859 11.9023C74.1719 12.1641 74.2949 12.3945 74.4551 12.5938C74.6191 12.793 74.8164 12.9492 75.0469 13.0625C75.2812 13.1758 75.5469 13.2324 75.8438 13.2324C76.2266 13.2324 76.5508 13.1543 76.8164 12.998C77.082 12.8418 77.3145 12.6328 77.5137 12.3711L78.1699 12.8926C78.0332 13.0996 77.8594 13.2969 77.6484 13.4844C77.4375 13.6719 77.1777 13.8242 76.8691 13.9414C76.5645 14.0586 76.2031 14.1172 75.7852 14.1172ZM83.5137 12.7695V5H84.6035V14H83.6074L83.5137 12.7695ZM79.248 10.9004V10.7773C79.248 10.293 79.3066 9.85352 79.4238 9.45898C79.5449 9.06055 79.7148 8.71875 79.9336 8.43359C80.1562 8.14844 80.4199 7.92969 80.7246 7.77734C81.0332 7.62109 81.377 7.54297 81.7559 7.54297C82.1543 7.54297 82.502 7.61328 82.7988 7.75391C83.0996 7.89062 83.3535 8.0918 83.5605 8.35742C83.7715 8.61914 83.9375 8.93555 84.0586 9.30664C84.1797 9.67773 84.2637 10.0977 84.3105 10.5664V11.1055C84.2676 11.5703 84.1836 11.9883 84.0586 12.3594C83.9375 12.7305 83.7715 13.0469 83.5605 13.3086C83.3535 13.5703 83.0996 13.7715 82.7988 13.9121C82.498 14.0488 82.1465 14.1172 81.7441 14.1172C81.373 14.1172 81.0332 14.0371 80.7246 13.877C80.4199 13.7168 80.1562 13.4922 79.9336 13.2031C79.7148 12.9141 79.5449 12.5742 79.4238 12.1836C79.3066 11.7891 79.248 11.3613 79.248 10.9004ZM80.3379 10.7773V10.9004C80.3379 11.2168 80.3691 11.5137 80.4316 11.791C80.498 12.0684 80.5996 12.3125 80.7363 12.5234C80.873 12.7344 81.0469 12.9004 81.2578 13.0215C81.4688 13.1387 81.7207 13.1973 82.0137 13.1973C82.373 13.1973 82.668 13.1211 82.8984 12.9688C83.1328 12.8164 83.3203 12.6152 83.4609 12.3652C83.6016 12.1152 83.7109 11.8438 83.7891 11.5508V10.1387C83.7422 9.92383 83.6738 9.7168 83.584 9.51758C83.498 9.31445 83.3848 9.13477 83.2441 8.97852C83.1074 8.81836 82.9375 8.69141 82.7344 8.59766C82.5352 8.50391 82.2988 8.45703 82.0254 8.45703C81.7285 8.45703 81.4727 8.51953 81.2578 8.64453C81.0469 8.76562 80.873 8.93359 80.7363 9.14844C80.5996 9.35938 80.498 9.60547 80.4316 9.88672C80.3691 10.1641 80.3379 10.4609 80.3379 10.7773ZM92.5898 6.22461L89.7656 14H88.6113L91.8633 5.46875H92.6074L92.5898 6.22461ZM94.957 14L92.127 6.22461L92.1094 5.46875H92.8535L96.1172 14H94.957ZM94.8105 10.8418V11.7676H90.0176V10.8418H94.8105ZM101.092 12.7695V5H102.182V14H101.186L101.092 12.7695ZM96.8262 10.9004V10.7773C96.8262 10.293 96.8848 9.85352 97.002 9.45898C97.123 9.06055 97.293 8.71875 97.5117 8.43359C97.7344 8.14844 97.998 7.92969 98.3027 7.77734C98.6113 7.62109 98.9551 7.54297 99.334 7.54297C99.7324 7.54297 100.08 7.61328 100.377 7.75391C100.678 7.89062 100.932 8.0918 101.139 8.35742C101.35 8.61914 101.516 8.93555 101.637 9.30664C101.758 9.67773 101.842 10.0977 101.889 10.5664V11.1055C101.846 11.5703 101.762 11.9883 101.637 12.3594C101.516 12.7305 101.35 13.0469 101.139 13.3086C100.932 13.5703 100.678 13.7715 100.377 13.9121C100.076 14.0488 99.7246 14.1172 99.3223 14.1172C98.9512 14.1172 98.6113 14.0371 98.3027 13.877C97.998 13.7168 97.7344 13.4922 97.5117 13.2031C97.293 12.9141 97.123 12.5742 97.002 12.1836C96.8848 11.7891 96.8262 11.3613 96.8262 10.9004ZM97.916 10.7773V10.9004C97.916 11.2168 97.9473 11.5137 98.0098 11.791C98.0762 12.0684 98.1777 12.3125 98.3145 12.5234C98.4512 12.7344 98.625 12.9004 98.8359 13.0215C99.0469 13.1387 99.2988 13.1973 99.5918 13.1973C99.9512 13.1973 100.246 13.1211 100.477 12.9688C100.711 12.8164 100.898 12.6152 101.039 12.3652C101.18 12.1152 101.289 11.8438 101.367 11.5508V10.1387C101.32 9.92383 101.252 9.7168 101.162 9.51758C101.076 9.31445 100.963 9.13477 100.822 8.97852C100.686 8.81836 100.516 8.69141 100.312 8.59766C100.113 8.50391 99.877 8.45703 99.6035 8.45703C99.3066 8.45703 99.0508 8.51953 98.8359 8.64453C98.625 8.76562 98.4512 8.93359 98.3145 9.14844C98.1777 9.35938 98.0762 9.60547 98.0098 9.88672C97.9473 10.1641 97.916 10.4609 97.916 10.7773ZM107.865 12.7695V5H108.955V14H107.959L107.865 12.7695ZM103.6 10.9004V10.7773C103.6 10.293 103.658 9.85352 103.775 9.45898C103.896 9.06055 104.066 8.71875 104.285 8.43359C104.508 8.14844 104.771 7.92969 105.076 7.77734C105.385 7.62109 105.729 7.54297 106.107 7.54297C106.506 7.54297 106.854 7.61328 107.15 7.75391C107.451 7.89062 107.705 8.0918 107.912 8.35742C108.123 8.61914 108.289 8.93555 108.41 9.30664C108.531 9.67773 108.615 10.0977 108.662 10.5664V11.1055C108.619 11.5703 108.535 11.9883 108.41 12.3594C108.289 12.7305 108.123 13.0469 107.912 13.3086C107.705 13.5703 107.451 13.7715 107.15 13.9121C106.85 14.0488 106.498 14.1172 106.096 14.1172C105.725 14.1172 105.385 14.0371 105.076 13.877C104.771 13.7168 104.508 13.4922 104.285 13.2031C104.066 12.9141 103.896 12.5742 103.775 12.1836C103.658 11.7891 103.6 11.3613 103.6 10.9004ZM104.689 10.7773V10.9004C104.689 11.2168 104.721 11.5137 104.783 11.791C104.85 12.0684 104.951 12.3125 105.088 12.5234C105.225 12.7344 105.398 12.9004 105.609 13.0215C105.82 13.1387 106.072 13.1973 106.365 13.1973C106.725 13.1973 107.02 13.1211 107.25 12.9688C107.484 12.8164 107.672 12.6152 107.812 12.3652C107.953 12.1152 108.062 11.8438 108.141 11.5508V10.1387C108.094 9.92383 108.025 9.7168 107.936 9.51758C107.85 9.31445 107.736 9.13477 107.596 8.97852C107.459 8.81836 107.289 8.69141 107.086 8.59766C106.887 8.50391 106.65 8.45703 106.377 8.45703C106.08 8.45703 105.824 8.51953 105.609 8.64453C105.398 8.76562 105.225 8.93359 105.088 9.14844C104.951 9.35938 104.85 9.60547 104.783 9.88672C104.721 10.1641 104.689 10.4609 104.689 10.7773Z" fill="white"/>
</svg>
