<svg width="36" height="36" viewBox="0 0 36 36" fill="none" xmlns="http://www.w3.org/2000/svg">
<rect width="36" height="36" rx="18" fill="white"/>
<path d="M18.1197 18.78C18.0497 18.77 17.9597 18.77 17.8797 18.78C16.1197 18.72 14.7197 17.28 14.7197 15.51C14.7197 13.7 16.1797 12.23 17.9997 12.23C19.8097 12.23 21.2797 13.7 21.2797 15.51C21.2697 17.28 19.8797 18.72 18.1197 18.78Z" stroke="url(#paint0_linear_1_8749)" stroke-width="1.5" stroke-linecap="round" stroke-linejoin="round"/>
<path d="M24.7398 25.3801C22.9598 27.0101 20.5998 28.0001 17.9998 28.0001C15.3998 28.0001 13.0398 27.0101 11.2598 25.3801C11.3598 24.4401 11.9598 23.5201 13.0298 22.8001C15.7698 20.9801 20.2498 20.9801 22.9698 22.8001C24.0398 23.5201 24.6398 24.4401 24.7398 25.3801Z" stroke="url(#paint1_linear_1_8749)" stroke-width="1.5" stroke-linecap="round" stroke-linejoin="round"/>
<path d="M18 28C23.5228 28 28 23.5228 28 18C28 12.4772 23.5228 8 18 8C12.4772 8 8 12.4772 8 18C8 23.5228 12.4772 28 18 28Z" stroke="url(#paint2_linear_1_8749)" stroke-width="1.5" stroke-linecap="round" stroke-linejoin="round"/>
<defs>
<linearGradient id="paint0_linear_1_8749" x1="17.7811" y1="18.78" x2="17.7811" y2="12.5575" gradientUnits="userSpaceOnUse">
<stop stop-color="#F33F41"/>
<stop offset="1" stop-color="#FB6D72"/>
</linearGradient>
<linearGradient id="paint1_linear_1_8749" x1="17.5504" y1="28.0001" x2="17.5504" y2="21.7633" gradientUnits="userSpaceOnUse">
<stop stop-color="#F33F41"/>
<stop offset="1" stop-color="#FB6D72"/>
</linearGradient>
<linearGradient id="paint2_linear_1_8749" x1="17.3333" y1="28" x2="17.3333" y2="9" gradientUnits="userSpaceOnUse">
<stop stop-color="#F33F41"/>
<stop offset="1" stop-color="#FB6D72"/>
</linearGradient>
</defs>
</svg>
