<svg width="22" height="16" viewBox="0 0 22 16" fill="none" xmlns="http://www.w3.org/2000/svg">
<path d="M13.9916 0C15.5755 0 17.1239 0.469192 18.4408 1.34824C19.7578 2.22729 20.7843 3.47672 21.3904 4.93853C21.9965 6.40034 22.1551 8.00887 21.8461 9.56072C21.5371 11.1126 20.7744 12.538 19.6544 13.6569C18.5344 14.7757 17.1075 15.5376 15.554 15.8463C14.0005 16.155 12.3903 15.9965 10.927 15.391C9.46363 14.7855 8.2129 13.7602 7.33293 12.4446C6.45296 11.129 5.98328 9.58225 5.98328 8C5.98328 5.87827 6.82701 3.84344 8.32887 2.34315C9.83073 0.842855 11.8677 0 13.9916 0ZM1.9791 8C1.98052 9.2396 2.36624 10.4483 3.08325 11.46C3.80026 12.4718 4.81335 13.2368 5.98328 13.65V15.74C4.2695 15.2925 2.75258 14.2901 1.66993 12.8896C0.58728 11.4891 0 9.7695 0 8C0 6.2305 0.58728 4.51093 1.66993 3.11041C2.75258 1.70989 4.2695 0.707456 5.98328 0.26V2.35C4.81335 2.7632 3.80026 3.52824 3.08325 4.53995C2.36624 5.55167 1.98052 6.7604 1.9791 8Z" fill="url(#paint0_linear_1_3508)"/>
<defs>
<linearGradient id="paint0_linear_1_3508" x1="10.2667" y1="16" x2="10.2667" y2="0.800001" gradientUnits="userSpaceOnUse">
<stop stop-color="#F33F41"/>
<stop offset="1" stop-color="#FB6D72"/>
</linearGradient>
</defs>
</svg>
