<svg width="22" height="20" viewBox="0 0 22 20" fill="none" xmlns="http://www.w3.org/2000/svg">
<path d="M21.0002 10.6144V12.6396C21.0002 13.1901 20.5402 13.6423 19.9702 13.6423H18.0402C16.9602 13.6423 15.9702 12.8657 15.8802 11.804C15.8202 11.1846 16.0602 10.6046 16.4802 10.2016C16.8502 9.82801 17.3602 9.61169 17.9202 9.61169H19.9702C20.5402 9.61169 21.0002 10.0639 21.0002 10.6144Z" stroke="#686868" stroke-width="1.5" stroke-linecap="round" stroke-linejoin="round"/>
<path d="M16.48 10.2015C15.98 10.6733 15.74 11.4008 15.94 12.1479C16.19 13.0622 17.11 13.6422 18.07 13.6422H19V15.0677C19 17.2403 17.21 18.9999 15 18.9999H5C2.79 18.9999 1 17.2403 1 15.0677V8.18618C1 6.0136 2.79 4.25391 5 4.25391H15C17.2 4.25391 19 6.02343 19 8.18618V9.61159H17.92C17.36 9.61159 16.85 9.8279 16.48 10.2015Z" stroke="#686868" stroke-width="1.5" stroke-linecap="round" stroke-linejoin="round"/>
<path d="M1 9.1693V4.62753C1 2.62207 2.65 1 4.69 1H10.31C12.35 1 14 2.2485 14 4.25396" stroke="#686868" stroke-width="1.5" stroke-linecap="round" stroke-linejoin="round"/>
<path d="M12 9.16931H6" stroke="#686868" stroke-width="1.5" stroke-linecap="round" stroke-linejoin="round"/>
</svg>
