<svg width="24" height="24" viewBox="0 0 24 24" fill="none" xmlns="http://www.w3.org/2000/svg">
<path fill-rule="evenodd" clip-rule="evenodd" d="M8.64141 0.473992C6.31237 1.14875 4.24179 2.50743 2.70015 4.37257C1.15851 6.23771 0.217487 8.52258 0 10.9287H5.50737C5.82665 7.26734 6.89248 3.70932 8.63969 0.472278L8.64141 0.473992ZM5.50737 13.0714H0C0.217032 15.4777 1.15766 17.7627 2.69899 19.6282C4.24033 21.4936 6.31072 22.8527 8.63969 23.5279C6.89248 20.2908 5.82665 16.7328 5.50737 13.0714ZM11.4003 23.9855C9.31227 20.69 8.03284 16.9511 7.66557 13.0714H16.3311C15.9638 16.9511 14.6844 20.69 12.5964 23.9855C12.1979 24.0048 11.7987 24.0048 11.4003 23.9855ZM15.3587 23.5261C17.6874 22.8511 19.7576 21.4923 21.2989 19.6272C22.8402 17.7621 23.781 15.4773 23.9984 13.0714H18.491C18.1717 16.7328 17.1059 20.2908 15.3587 23.5279V23.5261ZM18.491 10.9287H23.9984C23.7813 8.52249 22.8407 6.2374 21.2994 4.37195C19.758 2.5065 17.6877 1.14743 15.3587 0.472278C17.1059 3.7093 18.1718 7.26733 18.491 10.9287ZM11.4003 0.0145951C11.7993 -0.00486502 12.1991 -0.00486502 12.5981 0.0145951C14.6855 3.31027 15.9643 7.04922 16.3311 10.9287H7.66729C8.04076 7.02555 9.32295 3.28352 11.4003 0.0145951Z" fill="#949494"/>
</svg>
