<svg width="26" height="26" viewBox="0 0 26 26" fill="none" xmlns="http://www.w3.org/2000/svg">
<path d="M1.64789 25.0883L2.86528 19.4543C1.30058 16.9943 0.690186 14.0497 1.14862 11.173C1.60706 8.29636 3.10281 5.68527 5.35526 3.82965C7.6077 1.97404 10.462 1.00145 13.3827 1.09435C16.3034 1.18724 19.0897 2.33925 21.2189 4.33422C23.3481 6.3292 24.6738 9.03004 24.9473 11.93C25.2208 14.83 24.4233 17.7298 22.7045 20.0853C20.9856 22.4409 18.4635 24.0903 15.6114 24.7242C12.7592 25.358 9.77303 24.9327 7.2131 23.5281L1.64789 25.0883Z" fill="#25D366" stroke="white"/>
<path d="M17.7351 14.6871C17.4742 14.5138 17.2134 14.4271 16.9525 14.7738L15.909 16.1606C15.6482 16.334 15.4743 16.4207 15.1264 16.2473C13.8221 15.5539 11.996 14.7738 10.4308 12.1735C10.3438 11.8268 10.5177 11.6535 10.6917 11.4801L11.4743 10.2667C11.6482 10.0933 11.5612 9.91996 11.4743 9.74661L10.4308 7.233C10.1699 6.53959 9.90905 6.62627 9.64818 6.62627H8.95253C8.77861 6.62627 8.43079 6.71295 8.08296 7.05965C6.16993 8.96652 6.95253 11.6535 8.34383 13.387C8.6047 13.7337 10.3438 16.854 14.083 18.5009C16.8656 19.7143 17.4742 19.541 18.2569 19.3676C19.2134 19.281 20.1699 18.5009 20.6047 17.7208C20.6916 17.4608 21.1264 16.334 20.7786 16.1606" fill="white"/>
</svg>
